<svg xmlns="http://www.w3.org/2000/svg" viewBox="0 0 24 24">

    <symbol id="icon-comment" viewBox="0 0 24 24">
        <path
            d="m13.771 9.123-1.399-1.398-3.869 3.864v1.398h1.398zM14.098 6l1.398 1.398-1.067 1.067-1.398-1.398z"></path>
        <path
            d="M20 2H4c-1.103 0-2 .897-2 2v18l5.333-4H20c1.103 0 2-.897 2-2V4c0-1.103-.897-2-2-2zm0 14H6.667L4 18V4h16v12z"></path>
    </symbol>

    <symbol id="icon-plus" viewBox="0 0 24 24">
        <path d="M19 11h-6V5h-2v6H5v2h6v6h2v-6h6z"></path>
    </symbol>

    <symbol id="icon-trash" viewBox="0 0 24 24">
        <path
            d="M5 20a2 2 0 0 0 2 2h10a2 2 0 0 0 2-2V8h2V6h-4V4a2 2 0 0 0-2-2H9a2 2 0 0 0-2 2v2H3v2h2zM9 4h6v2H9zM8 8h9v12H7V8z"></path>
        <path d="M9 10h2v8H9zm4 0h2v8h-2z"></path>
    </symbol>

    <symbol id="icon-user" viewBox="0 0 24 24">
        <path
            d="M12 2a5 5 0 1 0 5 5 5 5 0 0 0-5-5zm0 8a3 3 0 1 1 3-3 3 3 0 0 1-3 3zm9 11v-1a7 7 0 0 0-7-7h-4a7 7 0 0 0-7 7v1h2v-1a5 5 0 0 1 5-5h4a5 5 0 0 1 5 5v1z"></path>
    </symbol>

    <symbol id="icon-menu" viewBox="0 0 24 24">
        <path d="M4 6h16v2H4zm0 5h16v2H4zm0 5h16v2H4z"></path>
    </symbol>

    <symbol id="icon-search" viewBox="0 0 24 24">
        <path
            d="M10 18a7.952 7.952 0 0 0 4.897-1.688l4.396 4.396 1.414-1.414-4.396-4.396A7.952 7.952 0 0 0 18 10c0-4.411-3.589-8-8-8s-8 3.589-8 8 3.589 8 8 8zm0-14c3.309 0 6 2.691 6 6s-2.691 6-6 6-6-2.691-6-6 2.691-6 6-6z"></path>
    </symbol>

    <symbol id="icon-chevron" viewBox="0 0 24 24">
        <path d="M16.293 9.293 12 13.586 7.707 9.293l-1.414 1.414L12 16.414l5.707-5.707z"></path>
    </symbol>

    <symbol id="icon-cart" viewBox="0 0 24 24">
        <circle cx="10.5" cy="19.5" r="1.5"></circle>
        <circle cx="17.5" cy="19.5" r="1.5"></circle>
        <path d="m14 13.99 4-5h-3v-4h-2v4h-3l4 5z"></path>
        <path
            d="M17.31 15h-6.64L6.18 4.23A2 2 0 0 0 4.33 3H2v2h2.33l4.75 11.38A1 1 0 0 0 10 17h8a1 1 0 0 0 .93-.64L21.76 9h-2.14z"></path>
    </symbol>

    <symbol id="icon-phone" viewBox="0 0 24 24">
        <path
            d="M17.707 12.293a.999.999 0 0 0-1.414 0l-1.594 1.594c-.739-.22-2.118-.72-2.992-1.594s-1.374-2.253-1.594-2.992l1.594-1.594a.999.999 0 0 0 0-1.414l-4-4a.999.999 0 0 0-1.414 0L3.581 5.005c-.38.38-.594.902-.586 1.435.023 1.424.4 6.37 4.298 10.268s8.844 4.274 10.269 4.298h.028c.528 0 1.027-.208 1.405-.586l2.712-2.712a.999.999 0 0 0 0-1.414l-4-4.001zm-.127 6.712c-1.248-.021-5.518-.356-8.873-3.712-3.366-3.366-3.692-7.651-3.712-8.874L7 4.414 9.586 7 8.293 8.293a1 1 0 0 0-.272.912c.024.115.611 2.842 2.271 4.502s4.387 2.247 4.502 2.271a.991.991 0 0 0 .912-.271L17 14.414 19.586 17l-2.006 2.005z"></path>
    </symbol>

    <symbol id="icon-heart" viewBox="0 0 24 24">
        <path
            d="M12 4.595a5.904 5.904 0 0 0-3.996-1.558 5.942 5.942 0 0 0-4.213 1.758c-2.353 2.363-2.352 6.059.002 8.412l7.332 7.332c.17.299.498.492.875.492a.99.99 0 0 0 .792-.409l7.415-7.415c2.354-2.354 2.354-6.049-.002-8.416a5.938 5.938 0 0 0-4.209-1.754A5.906 5.906 0 0 0 12 4.595zm6.791 1.61c1.563 1.571 1.564 4.025.002 5.588L12 18.586l-6.793-6.793c-1.562-1.563-1.561-4.017-.002-5.584.76-.756 1.754-1.172 2.799-1.172s2.035.416 2.789 1.17l.5.5a.999.999 0 0 0 1.414 0l.5-.5c1.512-1.509 4.074-1.505 5.584-.002z"></path>
    </symbol>

    <symbol id="icon-star" viewBox="0 0 24 24">
        <path
            d="M21.947 9.179a1.001 1.001 0 0 0-.868-.676l-5.701-.453-2.467-5.461a.998.998 0 0 0-1.822-.001L8.622 8.05l-5.701.453a1 1 0 0 0-.619 1.713l4.213 4.107-1.49 6.452a1 1 0 0 0 1.53 1.057L12 18.202l5.445 3.63a1.001 1.001 0 0 0 1.517-1.106l-1.829-6.4 4.536-4.082c.297-.268.406-.686.278-1.065z"></path>
    </symbol>

    <symbol id="icon-vk" viewBox="0 0 24 24">
        <path
            d="M21.579 6.855c.14-.465 0-.806-.662-.806h-2.193c-.558 0-.813.295-.953.619 0 0-1.115 2.719-2.695 4.482-.51.513-.743.675-1.021.675-.139 0-.341-.162-.341-.627V6.855c0-.558-.161-.806-.626-.806H9.642c-.348 0-.558.258-.558.504 0 .528.79.65.871 2.138v3.228c0 .707-.127.836-.407.836-.743 0-2.551-2.729-3.624-5.853-.209-.607-.42-.852-.98-.852H2.752c-.627 0-.752.295-.752.619 0 .582.743 3.462 3.461 7.271 1.812 2.601 4.363 4.011 6.687 4.011 1.393 0 1.565-.313 1.565-.853v-1.966c0-.626.133-.752.574-.752.324 0 .882.164 2.183 1.417 1.486 1.486 1.732 2.153 2.567 2.153h2.192c.626 0 .939-.313.759-.931-.197-.615-.907-1.51-1.849-2.569-.512-.604-1.277-1.254-1.51-1.579-.325-.419-.231-.604 0-.976.001.001 2.672-3.761 2.95-5.04z"></path>
    </symbol>

    <symbol id="icon-close" viewBox="0 0 24 24">
        <path
            d="m16.192 6.344-4.243 4.242-4.242-4.242-1.414 1.414L10.535 12l-4.242 4.242 1.414 1.414 4.242-4.242 4.243 4.242 1.414-1.414L13.364 12l4.242-4.242z"></path>
    </symbol>

    <symbol id="icon-trending-down" viewBox="0 0 24 24">
        <path
            d="m14 9.586-4 4-6.293-6.293-1.414 1.414L10 16.414l4-4 4.293 4.293L16 19h6v-6l-2.293 2.293z"></path>
    </symbol>

    <symbol id="icon-trending-up" viewBox="0 0 24 24">
        <path
            d="m10 10.414 4 4 5.707-5.707L22 11V5h-6l2.293 2.293L14 11.586l-4-4-7.707 7.707 1.414 1.414z"></path>
    </symbol>

    <symbol id="icon-geolocation" viewBox="0 0 24 24">
        <path
            d="M12 14c2.206 0 4-1.794 4-4s-1.794-4-4-4-4 1.794-4 4 1.794 4 4 4zm0-6c1.103 0 2 .897 2 2s-.897 2-2 2-2-.897-2-2 .897-2 2-2z"></path>
        <path
            d="M11.42 21.814a.998.998 0 0 0 1.16 0C12.884 21.599 20.029 16.44 20 10c0-4.411-3.589-8-8-8S4 5.589 4 9.995c-.029 6.445 7.116 11.604 7.42 11.819zM12 4c3.309 0 6 2.691 6 6.005.021 4.438-4.388 8.423-6 9.73-1.611-1.308-6.021-5.294-6-9.735 0-3.309 2.691-6 6-6z"></path>
    </symbol>

    <symbol id="icon-yandex" viewBox="0 0 48 48">
        <path
            d="M 24.505859 3.0039062 C 13.210242 3.0039062 4.0117187 12.201399 4.0117188 23.496094 C 4.0117188 34.790789 13.210242 43.988281 24.505859 43.988281 C 35.801477 43.988281 44.998047 34.790789 44.998047 23.496094 C 44.998047 12.201399 35.801477 3.0039063 24.505859 3.0039062 z M 24.505859 6.0039062 C 34.178242 6.0039064 41.998047 13.824789 41.998047 23.496094 C 41.998047 33.167399 34.178242 40.988281 24.505859 40.988281 C 14.833477 40.988281 7.0117187 33.167399 7.0117188 23.496094 C 7.0117188 13.824789 14.833477 6.0039062 24.505859 6.0039062 z M 33.517578 13.966797 A 1.50015 1.50015 0 0 0 32.429688 14.445312 L 24.5 22.382812 L 16.568359 14.445312 A 1.50015 1.50015 0 0 0 15.492188 13.990234 A 1.50015 1.50015 0 0 0 14.445312 16.564453 L 23 25.126953 L 23 35.505859 A 1.50015 1.50015 0 1 0 26 35.505859 L 26 25.125 L 34.550781 16.564453 A 1.50015 1.50015 0 0 0 33.517578 13.966797 z"></path>
    </symbol>

    <symbol id="icon-upload" viewBox="0 0 24 24">
        <path d="M13 19v-4h3l-4-5-4 5h3v4z"></path>
        <path
            d="M7 19h2v-2H7c-1.654 0-3-1.346-3-3 0-1.404 1.199-2.756 2.673-3.015l.581-.102.192-.558C8.149 8.274 9.895 7 12 7c2.757 0 5 2.243 5 5v1h1c1.103 0 2 .897 2 2s-.897 2-2 2h-3v2h3c2.206 0 4-1.794 4-4a4.01 4.01 0 0 0-3.056-3.888C18.507 7.67 15.56 5 12 5 9.244 5 6.85 6.611 5.757 9.15 3.609 9.792 2 11.82 2 14c0 2.757 2.243 5 5 5z"></path>
    </symbol>

    <symbol id="icon-tg" viewBox="0 0 24 24">
        <path
            d="m20.665 3.717-17.73 6.837c-1.21.486-1.203 1.161-.222 1.462l4.552 1.42 10.532-6.645c.498-.303.953-.14.579.192l-8.533 7.701h-.002l.002.001-.314 4.692c.46 0 .663-.211.921-.46l2.211-2.15 4.599 3.397c.848.467 1.457.227 1.668-.785l3.019-14.228c.309-1.239-.473-1.8-1.282-1.434z"></path>
    </symbol>

    <symbol id="icon-whatsapp" viewBox="0 0 24 24">
        <path fill-rule="evenodd" clip-rule="evenodd"
            d="M18.403 5.633A8.919 8.919 0 0 0 12.053 3c-4.948 0-8.976 4.027-8.978 8.977 0 1.582.413 3.126 1.198 4.488L3 21.116l4.759-1.249a8.981 8.981 0 0 0 4.29 1.093h.004c4.947 0 8.975-4.027 8.977-8.977a8.926 8.926 0 0 0-2.627-6.35m-6.35 13.812h-.003a7.446 7.446 0 0 1-3.798-1.041l-.272-.162-2.824.741.753-2.753-.177-.282a7.448 7.448 0 0 1-1.141-3.971c.002-4.114 3.349-7.461 7.465-7.461a7.413 7.413 0 0 1 5.275 2.188 7.42 7.42 0 0 1 2.183 5.279c-.002 4.114-3.349 7.462-7.461 7.462m4.093-5.589c-.225-.113-1.327-.655-1.533-.73-.205-.075-.354-.112-.504.112s-.58.729-.711.879-.262.168-.486.056-.947-.349-1.804-1.113c-.667-.595-1.117-1.329-1.248-1.554s-.014-.346.099-.458c.101-.1.224-.262.336-.393.112-.131.149-.224.224-.374s.038-.281-.019-.393c-.056-.113-.505-1.217-.692-1.666-.181-.435-.366-.377-.504-.383a9.65 9.65 0 0 0-.429-.008.826.826 0 0 0-.599.28c-.206.225-.785.767-.785 1.871s.804 2.171.916 2.321c.112.15 1.582 2.415 3.832 3.387.536.231.954.369 1.279.473.537.171 1.026.146 1.413.089.431-.064 1.327-.542 1.514-1.066.187-.524.187-.973.131-1.067-.056-.094-.207-.151-.43-.263"></path>
    </symbol>

    <symbol id="icon-bell" viewBox="0 0 24 24">
        <path
            d="M12 22a2.98 2.98 0 0 0 2.818-2H9.182A2.98 2.98 0 0 0 12 22zm7-7.414V10c0-3.217-2.185-5.927-5.145-6.742C13.562 2.52 12.846 2 12 2s-1.562.52-1.855 1.258C7.185 4.074 5 6.783 5 10v4.586l-1.707 1.707A.996.996 0 0 0 3 17v1a1 1 0 0 0 1 1h16a1 1 0 0 0 1-1v-1a.996.996 0 0 0-.293-.707L19 14.586z"></path>
    </symbol>

    <!-- example -->
    <symbol id="your-name-icon" viewBox="0 0 24 24">
        <!-- svg code -->
    </symbol>
</svg>